<?xml version="1.0" encoding="UTF-8" standalone="no"?>
<!DOCTYPE svg PUBLIC "-//W3C//DTD SVG 1.1//EN"
 "http://www.w3.org/Graphics/SVG/1.1/DTD/svg11.dtd">
<!-- Generated by graphviz version 2.50.0 (20211204.2007)
 -->
<!-- Pages: 1 -->
<svg width="253pt" height="350pt"
 viewBox="0.00 0.00 252.50 350.00" xmlns="http://www.w3.org/2000/svg" xmlns:xlink="http://www.w3.org/1999/xlink">
<g id="graph0" class="graph" transform="scale(1 1) rotate(0) translate(4 346)">
<polygon fill="white" stroke="transparent" points="-4,4 -4,-346 248.5,-346 248.5,4 -4,4"/>
<!-- _1 -->
<g id="node1" class="node">
<title>_1</title>
<g id="a_node1"><a xlink:href="0001-record-architecture-decisions.html" xlink:title="1. Record architecture decisions">
<text text-anchor="middle" x="113.5" y="-320.3" font-family="Times,serif" font-size="14.00">1. Record architecture decisions</text>
</a>
</g>
</g>
<!-- _2 -->
<g id="node2" class="node">
<title>_2</title>
<g id="a_node2"><a xlink:href="0002-an-idea-that-seems-good-at-the-time.html" xlink:title="2. An idea that seems good at the time">
<text text-anchor="middle" x="113.5" y="-247.3" font-family="Times,serif" font-size="14.00">2. An idea that seems good at the time</text>
</a>
</g>
</g>
<!-- _1&#45;&gt;_2 -->
<g id="edge1" class="edge">
<title>_1&#45;&gt;_2</title>
<path fill="none" stroke="black" stroke-dasharray="1,5" d="M113.5,-305.81C113.5,-297.79 113.5,-288.05 113.5,-279.07"/>
<polygon fill="black" stroke="black" points="117,-279.03 113.5,-269.03 110,-279.03 117,-279.03"/>
</g>
<!-- _3 -->
<g id="node3" class="node">
<title>_3</title>
<g id="a_node3"><a xlink:href="0003-a-better-idea.html" xlink:title="3. A better idea">
<text text-anchor="middle" x="113.5" y="-160.3" font-family="Times,serif" font-size="14.00">3. A better idea</text>
</a>
</g>
</g>
<!-- _2&#45;&gt;_3 -->
<g id="edge2" class="edge">
<title>_2&#45;&gt;_3</title>
<path fill="none" stroke="black" stroke-dasharray="1,5" d="M113.5,-232.8C113.5,-221.16 113.5,-205.55 113.5,-192.24"/>
<polygon fill="black" stroke="black" points="117,-192.18 113.5,-182.18 110,-192.18 117,-192.18"/>
</g>
<!-- _3&#45;&gt;_2 -->
<g id="edge5" class="edge">
<title>_3&#45;&gt;_2</title>
<path fill="none" stroke="black" d="M120.05,-182.2C121.87,-187.79 123.59,-194.08 124.5,-200 125.67,-207.61 124.79,-215.8 123.11,-223.29"/>
<polygon fill="black" stroke="black" points="119.72,-222.41 120.44,-232.98 126.47,-224.26 119.72,-222.41"/>
<text text-anchor="middle" x="155.5" y="-203.8" font-family="Times,serif" font-size="14.00">Supercedes</text>
</g>
<!-- _4 -->
<g id="node4" class="node">
<title>_4</title>
<g id="a_node4"><a xlink:href="0004-this-will-work.html" xlink:title="4. This will work">
<text text-anchor="middle" x="113.5" y="-87.3" font-family="Times,serif" font-size="14.00">4. This will work</text>
</a>
</g>
</g>
<!-- _3&#45;&gt;_4 -->
<g id="edge3" class="edge">
<title>_3&#45;&gt;_4</title>
<path fill="none" stroke="black" stroke-dasharray="1,5" d="M113.5,-145.81C113.5,-137.79 113.5,-128.05 113.5,-119.07"/>
<polygon fill="black" stroke="black" points="117,-119.03 113.5,-109.03 110,-119.03 117,-119.03"/>
</g>
<!-- _5 -->
<g id="node5" class="node">
<title>_5</title>
<g id="a_node5"><a xlink:href="0005-the-end.html" xlink:title="5. The end">
<text text-anchor="middle" x="113.5" y="-14.3" font-family="Times,serif" font-size="14.00">5. The end</text>
</a>
</g>
</g>
<!-- _4&#45;&gt;_5 -->
<g id="edge4" class="edge">
<title>_4&#45;&gt;_5</title>
<path fill="none" stroke="black" stroke-dasharray="1,5" d="M113.5,-72.81C113.5,-64.79 113.5,-55.05 113.5,-46.07"/>
<polygon fill="black" stroke="black" points="117,-46.03 113.5,-36.03 110,-46.03 117,-46.03"/>
</g>
<!-- _5&#45;&gt;_3 -->
<g id="edge6" class="edge">
<title>_5&#45;&gt;_3</title>
<path fill="none" stroke="black" d="M143.61,-36.06C156.59,-45.19 170.39,-57.71 177.5,-73 184.24,-87.51 184.24,-94.49 177.5,-109 171.89,-121.07 162.11,-131.41 151.86,-139.72"/>
<polygon fill="black" stroke="black" points="149.49,-137.12 143.61,-145.94 153.7,-142.71 149.49,-137.12"/>
<text text-anchor="middle" x="213.5" y="-87.3" font-family="Times,serif" font-size="14.00">Supercedes</text>
</g>
</g>
</svg>
